<?xml version="1.0" encoding="UTF-8" standalone="no"?>
<!-- Created with Inkscape (http://www.inkscape.org/) -->

<svg
   xmlns:dc="http://purl.org/dc/elements/1.1/"
   xmlns:cc="http://creativecommons.org/ns#"
   xmlns:rdf="http://www.w3.org/1999/02/22-rdf-syntax-ns#"
   xmlns:svg="http://www.w3.org/2000/svg"
   xmlns="http://www.w3.org/2000/svg"
   version="1.1"
   width="60"
   height="45"
   id="svg5103">
    <defs id="defs5105">
        <style>
            rect, line { shape-rendering: crispEdges; }
        </style>        
    </defs>
  <metadata
     id="metadata5108">
    <rdf:RDF>
      <cc:Work
         rdf:about="">
        <dc:format>image/svg+xml</dc:format>
        <dc:type
           rdf:resource="http://purl.org/dc/dcmitype/StillImage" />
        <dc:title></dc:title>
      </cc:Work>
    </rdf:RDF>
  </metadata>
  <g
     transform="translate(0,-1007.3622)"
     id="layer1">
    <g
       transform="matrix(0.95980795,0,0,0.95980795,-88.523507,320.02933)"
       id="g5095">
      <g
         transform="matrix(0.62500006,0,0,-0.62500006,123.48669,751.41647)"
         id="g3297">
        <path
           d="m 0,0 c -14.304,4.578 -28.608,9.156 -42.912,13.735 l 19.985,0 0.02,0 45.814,0 0.02,0 19.985,0 C 28.608,9.156 14.304,4.578 0,0 m 50.01,35.09 c 0,18.228 -39.063,21.353 -48.958,21.353 l -0.02,0 -2.064,0 -0.02,0 c -9.895,0 -48.958,-3.125 -48.958,-21.353 l 0,-21.355 0.019,0 c 0.068,-0.519 0.382,-1.005 1.021,-1.209 l 44.053,-14.1 c -14.524,-4.65 -29.049,-9.299 -43.573,-13.947 -1.835,-0.588 -1.05,-3.485 0.798,-2.893 15.897,5.088 31.795,10.178 47.692,15.266 15.897,-5.088 31.795,-10.178 47.692,-15.266 1.848,-0.592 2.633,2.305 0.797,2.893 -14.523,4.648 -29.048,9.297 -43.572,13.947 14.685,4.7 29.369,9.4 44.053,14.1 0.638,0.204 0.953,0.69 1.021,1.209 l 0.019,0 0,21.355 z"
           id="path3299"
           style="fill:#414344;fill-opacity:1;fill-rule:nonzero;stroke:none" />
      </g>
      <g
         transform="matrix(0.62500006,0,0,-0.62500006,112.65356,733.02784)"
         id="g3301">
        <path
           d="m 0,0 c -0.005,-3.91 3.159,-7.088 7.07,-7.094 3.912,-0.006 7.089,3.16 7.096,7.073 0.006,3.91 -3.159,7.087 -7.072,7.093 C 3.184,7.078 0.008,3.912 0,0"
           id="path3303"
           style="fill:#f9e9ca;fill-opacity:1;fill-rule:nonzero;stroke:none" />
      </g>
      <g
         transform="matrix(0.62500006,0,0,-0.62500006,125.46606,733.02784)"
         id="g3305">
        <path
           d="m 0,0 c -0.005,-3.91 3.159,-7.088 7.07,-7.094 3.912,-0.006 7.089,3.16 7.096,7.073 0.006,3.91 -3.159,7.087 -7.072,7.093 C 3.184,7.078 0.008,3.912 0,0"
           id="path3307"
           style="fill:#f9e9ca;fill-opacity:1;fill-rule:nonzero;stroke:none" />
      </g>
    </g>
  </g>
</svg>
