<?xml version="1.0" encoding="UTF-8" standalone="no"?>
<!-- Created with Inkscape (http://www.inkscape.org/) -->

<svg
   xmlns:dc="http://purl.org/dc/elements/1.1/"
   xmlns:cc="http://creativecommons.org/ns#"
   xmlns:rdf="http://www.w3.org/1999/02/22-rdf-syntax-ns#"
   xmlns:svg="http://www.w3.org/2000/svg"
   xmlns="http://www.w3.org/2000/svg"
   version="1.1"
   width="42"
   height="70"
   id="svg5103">
  <defs
     id="defs5105" />
  <metadata
     id="metadata5108">
    <rdf:RDF>
      <cc:Work
         rdf:about="">
        <dc:format>image/svg+xml</dc:format>
        <dc:type
           rdf:resource="http://purl.org/dc/dcmitype/StillImage" />
        <dc:title></dc:title>
      </cc:Work>
    </rdf:RDF>
  </metadata>
  <g
     transform="translate(0,-982.3622)"
     id="layer1">
    <g
       transform="matrix(1.0067264,0,0,1.0081252,-351.8726,271.7959)"
       id="g5258">
      <g
         transform="matrix(0.62500006,0,0,-0.62500006,374.06046,710.45703)"
         id="g3325">
        <path
           d="m 0,0 -5.887,0 -5.886,0 -23.53,-35.923 0,-0.077 29.416,0 29.417,0 0,0.077 L 0,0 z"
           id="path3327"
           style="fill:#414344;fill-opacity:1;fill-rule:nonzero;stroke:none" />
      </g>
      <g
         transform="matrix(0.62500006,0,0,-0.62500006,370.38127,704.83934)"
         id="g3329">
        <path
           d="m 0,0 -5.887,-8.988 5.887,0 5.887,0 L 0,0 z"
           id="path3331"
           style="fill:#f9e9ca;fill-opacity:1;fill-rule:nonzero;stroke:none" />
      </g>
      <g
         transform="matrix(0.62500006,0,0,-0.62500006,388.76658,748.11203)"
         id="g3333">
        <path
           d="m 0,0 0,24.248 -29.417,0 -29.416,0 0,-24.248 c 0,-9.051 -3.959,-9.051 -3.959,-35.073 0,0 6.788,13.011 16.688,13.011 9.898,0 16.687,-19.799 16.687,-19.799 0,0 6.79,19.799 16.688,19.799 9.901,0 16.688,-13.011 16.688,-13.011 C 3.959,-9.051 0,-9.051 0,0"
           id="path3335"
           style="fill:#f9e9ca;fill-opacity:1;fill-rule:nonzero;stroke:none" />
      </g>
      <g
         transform="matrix(0.62500006,0,0,-0.62500006,365.96596,722.79953)"
         id="g3337">
        <path
           d="m 0,0 c -0.006,-3.91 3.158,-7.087 7.07,-7.094 3.912,-0.005 7.089,3.161 7.097,7.073 C 14.172,3.89 11.006,7.066 7.094,7.072 3.184,7.078 0.008,3.912 0,0"
           id="path3339"
           style="fill:#f9e9ca;fill-opacity:1;fill-rule:nonzero;stroke:none" />
      </g>
      <g
         transform="matrix(0.62500006,0,0,-0.62500006,365.96596,738.80847)"
         id="g3341">
        <path
           d="m 0,0 c -0.006,-3.91 3.158,-7.087 7.07,-7.094 3.912,-0.005 7.089,3.161 7.097,7.073 C 14.172,3.89 11.006,7.066 7.094,7.072 3.184,7.078 0.008,3.912 0,0"
           id="path3343"
           style="fill:#414344;fill-opacity:1;fill-rule:nonzero;stroke:none" />
      </g>
      <path
         d="m 374.81977,738.50359 -8.85437,0 0,8.35938 8.85437,0 0,-8.35938 z"
         id="path3345"
         style="fill:#414344;fill-opacity:1;fill-rule:nonzero;stroke:none" />
    </g>
  </g>
</svg>
