<?xml version="1.0" encoding="UTF-8" standalone="no"?>
<!-- Created with Inkscape (http://www.inkscape.org/) -->

<svg
   xmlns:dc="http://purl.org/dc/elements/1.1/"
   xmlns:cc="http://creativecommons.org/ns#"
   xmlns:rdf="http://www.w3.org/1999/02/22-rdf-syntax-ns#"
   xmlns:svg="http://www.w3.org/2000/svg"
   xmlns="http://www.w3.org/2000/svg"
   version="1.1"
   width="60"
   height="37"
   id="svg5103">
  <defs
     id="defs5105" />
  <metadata
     id="metadata5108">
    <rdf:RDF>
      <cc:Work
         rdf:about="">
        <dc:format>image/svg+xml</dc:format>
        <dc:type
           rdf:resource="http://purl.org/dc/dcmitype/StillImage" />
        <dc:title></dc:title>
      </cc:Work>
    </rdf:RDF>
  </metadata>
  <g
     transform="translate(0,-1015.3622)"
     id="layer1">
    <g
       transform="translate(-662.91326,653.12321)"
       id="g5423">
      <g
         transform="matrix(0.89971518,0,0,-0.89516851,673.73282,380.73944)"
         id="g3053">
        <path
           d="m 0,0 c 0,-11.413 9.252,-20.666 20.666,-20.666 11.414,0 20.666,9.253 20.666,20.666 0,11.414 -9.252,20.667 -20.666,20.667 C 9.252,20.667 0,11.414 0,0"
           id="path3055"
           style="fill:#414344;fill-opacity:1;fill-rule:nonzero;stroke:none" />
      </g>
      <g
         transform="matrix(0.89971518,0,0,-0.89516851,665.49125,389.29251)"
         id="g3057">
        <path
           d="M 0,0 C 1.26,-4.503 15.926,-4.337 32.758,0.371 49.59,5.079 62.217,12.546 60.957,17.048 59.697,21.551 45.029,21.385 28.197,16.677 11.365,11.97 -1.26,4.502 0,0 z"
           id="path3059"
           style="fill:none;stroke:#f9e9ca;stroke-width:5.57140923;stroke-linecap:butt;stroke-linejoin:miter;stroke-miterlimit:10;stroke-opacity:1;stroke-dasharray:none" />
      </g>
      <g
         transform="matrix(0.89971518,0,0,-0.89516851,692.32633,362.239)"
         id="g3061">
        <path
           d="m 0,0 c -11.414,0 -20.666,-9.253 -20.666,-20.667 0,-2.289 0.387,-4.483 1.074,-6.541 l 39.645,11.46 C 17.842,-6.713 9.715,0 0,0"
           id="path3063"
           style="fill:#414344;fill-opacity:1;fill-rule:nonzero;stroke:none" />
      </g>
    </g>
  </g>
</svg>
